<?xml version="1.0" encoding="UTF-8"?>
<svg version="1.1" viewBox="0 0 1600 1600" width="100" height="100" xmlns="http://www.w3.org/2000/svg">
<path transform="translate(1207,391)" d="m0 0 6 2 7 7 13 18 6 9 6 8 6 10-2 5-10 9-10 8-17 17-8 7-14 15-7 8-12 14-9 10-7 8-13 16-8 9-8 11-8 10-9 13-13 17-11 15-10 17-7 10-8 13-6 9-6 11-7 12-12 22-9 15-11 20-12 21-8 16-6 15-2 4 19-9 35-23 18-11 22-15 54-36 38-29 25-20 14-12 10-9h2v-2l8-7 16-15 11-9 23-23 9-11 11-12 8-10 6-6 3 1 6 14 11 31 7 18 1 6-4 7-9 10-30 30-8 7-9 9-8 7-15 14-11 9-13 11-13 10-17 12-12 9-14 10-12 8-14 9-23 15-11 7-19 12-10 7-13 8-18 11-20 12-23 13-25 14-20 12-18 11-16 9-4 3h-2v2h-2l-2 5-10 17-13 23-15 26-12 20-13 24-15 29-16 29-11 20-13 23-12 19-10 16-13 21-6 8-6 11-9 14-18 27-7 11-8 12-8 10-9 11-11 14-12 14-7 8-9 11-11 12-2 3h-2v2l-5 4-7-1-11-6-11-4-2-2h-7l-27-9-3-2 2-5 6-7 6-5 7-8 24-24 7-8 2-3h2l2-4 9-10 1-2h2l2-4 6-8h2l2-4 10-13 13-17 13-18 12-17 8-12 11-16 12-19 9-15 13-23 8-14 10-19 7-13 6-10 8-14 6-10 10-19 4-10-8 5-26 13-19 12-17 10-12 8-23 15-21 13-16 10-17 12-20 15-10 8-11 9-13 11-11 9-10 9-11 9-8 8-8 7-16 15-28 28-7 8-12 12-7 8-9 10-9 12-4 4-6-1-13-9-11-9-13-10-9-6-5-5 2-5 14-14 7-8 9-10 7-8 9-11 44-44 8-7 15-14 8-7 15-14 11-9 16-13 16-12 34-25 17-12 43-29 24-15 28-17 22-13 25-14 23-13 26-15 21-12 14-9 5-5 8-9 13-20 12-21 13-23 20-40 14-29 14-26 15-25 11-20 10-17 33-51 14-22 16-24 22-30 14-18 13-16 9-11 11-12 7-8 9-10 11-12 7-8 35-35z" fill="#6843A9"/>
<path transform="translate(939,214)" d="m0 0 8 1 36 12 26 9 3 2-2 4-4 6-8 7-10 10-7 8-2 3h-2l-2 4-18 18-7 8-10 11-16 20-8 11-8 10-9 12-10 13-10 14-12 20-6 8-16 24-9 15-7 10-7 12-6 11-11 19-9 16-14 26-8 16-5 13v2l22-9 19-12 16-10 20-13 69-46 16-12 21-16 17-12 12-9 11-9 10-9 8-7 10-10 8-7 19-19 7-8 11-11 7-8 7-7 7-8 11-13 16-20 5-6 3-2 5 1 9 8 8 10 9 9 14 11 4 4-1 4-7 9-11 12-7 9-11 12-2 3h-2l-2 4-15 15-7 8-32 32h-2v2l-8 7-16 15-11 9-11 10-14 11-11 9-15 11-11 8-18 13-14 10-17 11-22 14-18 12-24 15-55 33-27 16-48 26-10 6-11 8-7 8-8 16-13 24-14 25-12 21-12 22-15 28-7 12-7 14-8 14-10 19-14 24-9 15-11 18-6 10-10 16-17 25-7 10-11 16-8 11-8 10-9 12-11 13-7 9-13 15-9 11-15 16-7 8-6 7h-2l-2 4-27 27-8 7-9 9-4-2-13-18-11-14-11-13v-8l7-8 14-11 16-15 16-16 7-8 6-7h2l2-4 9-10 9-11 7-7 10-13 14-18 10-14 8-11 13-18 9-14 6-9 20-32 6-10 13-22 9-15 10-18 10-17 8-13 10-16 7-12 11-20h-3l-14 6-12 4-19 10-17 11-16 10-14 10-12 8-31 20-10 7-12 9-14 10-13 10-15 12-14 11-8 7-13 12-10 9-14 14-7 6h-2v2l-8 7-16 15h-2v2l-7 6-7 8-10 11-7 9-6 7-4-4-7-15-14-50v-9l4-7 13-12 12-11 11-9 13-13 8-7 7-7 11-9 11-10 14-11 18-13 13-10 34-24 43-29 27-18 26-16 26-15 21-13 21-12 18-10 27-16 20-9 9-6 7-9 10-17 8-13 11-20 10-19 8-15 10-21 10-19 18-35 13-23 9-16 13-23 8-13 12-20 7-10 7-11 28-42 12-17 10-14 9-12 7-9 8-10 7-9 10-13 12-14 9-11 3-4h2l2-4z" fill="#6843A9"/>
<path transform="translate(771,190)" d="m0 0h39l33 2 34 4 9 3 1 4-6 8-4 4h-2l-2 4-16 15-13 11-11 10-11 9-9 8-17 13-16 11-17 12-18 13-12 9-18 13-19 12-15 9-22 14-22 13-25 15-29 17-24 13-23 12-23 13-11 8-6 7-16 28-12 22-12 23-15 28-16 31-12 22-10 19-13 23-20 34-6 10-14 23-7 11-11 17-20 30-20 28-14 19-12 14-9 11-13 17-8 8-5 6-2-3-3-20-4-51-1-17v-22l4-63 4-30 5-26 8-28 13-37 10-36 9-25 8-18 8-16 9-17 13-23 11-16 10-15 9-14 8-11 13-16 9-10 7-8 10-11 3-4h2l2-4 15-15 8-7 10-9 8-7 18-14 18-13 35-23 19-11 16-9 23-11 27-11 27-10 44-13 30-7 38-6 20-2z" fill="#6843A9"/>
<path transform="translate(1343,694)" d="m0 0h3l3 7 3 23 2 23 1 20v56l-2 29-3 27-12 79-5 22-10 27-15 36-9 21-8 16-8 14-9 15-11 17-18 27-9 14-10 13-12 14-10 11-7 8-9 9-1 2h-2l-2 4-15 15-11 9-8 8-11 9-13 11-13 10-15 10-17 11-19 12-15 9-23 11-24 9-17 5-7 1-16 7-19 9-19 7-52 13-20 3-11 1h-80l-55-3-8-2 1-6 13-17 12-13 15-14 8-7 14-12 13-11 13-10 17-12 12-8 20-14 14-10 15-10 37-24 19-12 29-19 13-8 19-11 45-27 16-9 26-15 16-10 11-10 10-13 10-18 5-10 7-16 14-29 11-23 8-15 9-16 11-20 6-11 9-16 7-11 6-12 10-17 11-18 13-22 10-15 6-10 18-27 9-12 10-14 13-17 13-18 10-14 9-12z" fill="#6843A9"/>
<path transform="translate(853,896)" d="m0 0h3l1 8-2 4v13l-5 10-6 5-7 4h-2l-2 4-5 9-3 3-3 6-3 7-3 5-8 20-3 1-2 5-3 8-20 10-19 12-17 10-12 8-23 15-21 13-16 10-17 12-20 15-10 8-11 9-13 11-11 9-10 9-11 9-8 8-8 7-16 15-28 28-7 8-12 12-7 8-9 10-9 12-4 4-6-1-13-9-11-9-13-10-9-6-5-5 2-5 14-14 7-8 9-10 7-8 9-11 44-44 8-7 15-14 8-7 15-14 11-9 16-13 16-12 34-25 17-12 43-29 24-15 28-17 22-13 25-14 23-13 26-15 21-12z" fill="#3996B2"/>
<path transform="translate(1121,306)" d="m0 0 5 1 9 8 8 10 9 9 14 11 4 4-1 4-7 9-11 12-7 9-11 12-2 3h-2l-2 4-15 15-7 8-32 32h-2v2l-8 7-16 15-11 9-11 10-14 11-11 9-15 11-11 8-18 13-14 10-17 11-22 14-18 12-24 15-55 33-27 16-24 13-20 11h-2v-10l2-9 2-11 4-9 8-10 9-17 3-3 11-26 2-5 17-7 19-12 16-10 20-13 69-46 16-12 21-16 17-12 12-9 11-9 10-9 8-7 10-10 8-7 19-19 7-8 11-11 7-8 7-7 7-8 11-13 16-20 5-6z" fill="#46588D"/>
<path transform="translate(1310,563)" d="m0 0 3 1 6 14 11 31 7 18 1 6-4 7-9 10-30 30-8 7-9 9-8 7-15 14-11 9-13 11-13 10-17 12-12 9-14 10-12 8-14 9-23 15-11 7-19 12-10 7-13 8-18 11-20 12-23 13-25 14-20 12-18 11-7 3 2-13 3-10 5-14 8-13 7-10 6-12 5-6 7-14 4-10 16-8 30-20 18-11 22-15 54-36 38-29 25-20 14-12 10-9h2v-2l8-7 16-15 11-9 23-23 9-11 11-12 8-10z" fill="#464781"/>
<path transform="translate(628,675)" d="m0 0h3l1 17-1 2h-2l-1 3-4 1-2 5-4 5-4 4-4 8-4 10-9 16-4 4-13 32-12 5-15 8-17 11-16 10-14 10-12 8-31 20-10 7-12 9-14 10-13 10-15 12-14 11-8 7-13 12-10 9-14 14-7 6h-2v2l-8 7-16 15h-2v2l-7 6-7 8-10 11-7 9-6 7-4-4-7-15-14-50v-9l4-7 13-12 12-11 11-9 13-13 8-7 7-7 11-9 11-10 14-11 18-13 13-10 34-24 43-29 27-18 26-16 26-15 21-13 21-12 18-10 27-16z" fill="#3A96B2"/>
<path transform="translate(954,1250)" d="m0 0 16 1 7 2 4 2 1 8 3 6 5 1 2 8-1 5-10 19-8 16-10 30-9 16-1 4-18 8-18 6-48 12-20 3-11 1h-80l-55-3-8-2 1-6 13-17 12-13 15-14 8-7 14-12 13-11 13-10 17-12 12-8 20-14 11-8 2 1-1 2 11-1 13-1 19-2 4-2 15-3 15-2 20-2 8 1z" fill="#3996B2"/>
<path transform="translate(261,653)" d="m0 0 8 3v2h12l2-1h7l6 2 2 2 8-1 3 1 2-1h6l5 3 9 3 11 8 5 8 2 4 3 1 7 13 1 9 3 1v2h2l-2 6-12 19-8 13-11 17-20 30-20 28-14 19-12 14-9 11-13 17-8 8-5 6-2-3-3-20-4-51-1-17v-22l4-63 4-30 5-26 3-11 12-1h3l3-1 5-1z" fill="#3996B2"/>
<path transform="translate(461,517)" d="m0 0 9 1-1 6-14 27-14 26-16 31-12 22-10 19-13 23-20 34-4 6h-3v-2l-4-1-1-9-7-13-5-5-3-4-3-5-10-7-11-3-2-2h-6l-3 1-7-1-4 1-2-3-5-1h-7l-4 1h-8l-2-1v-2l-8-2-3 2h-5l-2 2h-2v-2l-10 2-1-4 6-20 4-11 5-1 4 2h8l4-3h3v-2l19-9 11-8 6-4 11-6 15-8 16-8 17-8 5-3 10-2v-2l9-5 5-3 16-8 7-4 2-2 10-6 7-3 6-4 5-3z" fill="#44749F"/>
<path transform="translate(1141,747)" d="m0 0 7 2 4 2 1 7-4 6h2l-1 5-2 5h-2v2h-3l1 6-8 8-2-1-1 3-4 6h-7l-1 6-6 5-4 2-5 6-6 3-4 8-4 4-17 11-40 24-23 13-25 14-20 12-18 11-7 3 2-13 3-10 5-14 8-13 7-10 6-12 5-6 7-14 4-10 16-8 30-20 18-11 19-13 4 2h10l8-3h8l4-4 3-1-1-2 9-2v-2l2-1 1-4 3-1 6 2-3 1v2l5-2 8-2z" fill="#46578D"/>
<path transform="translate(1057,1129)" d="m0 0h3l-2 6h-2v2l-3 3-1 3h-2l-1 6-4 10 3 1-9 24-6 12-3 13-8 20-8 16-7 13-6 7-3 6h-2l-2 6-2 2-2-7v-2h-5l-3-5-2-7-1-4-8-1-1-1-16-1-6 2-8-1-18 2-20 3-13 3-1 1-25 3h-11l-5 1-2-1 2-5 15-10 37-24 19-12 29-19 13-8 19-11 45-27 16-9z" fill="#46588D"/>
<path transform="translate(1121,306)" d="m0 0 5 1 9 8 8 10 9 9 14 11 4 4-1 4-7 9-11 12-7 9-11 12-2 3h-2l-2 4-15 15-7 8-32 32h-2v2l-7 6-3-1v-5l6-7 2-3-1-5-2-4-1-5-6-5-3-10-2-2-15 1-5 8-5 2v2l-5 2-4 1-3 3h-8v3h-2l-1 3-4 3h-3l-1 2-13 2 6-8 11-10 8-7 10-10 8-7 19-19 7-8 11-11 7-8 7-7 7-8 11-13 16-20 5-6z" fill="#442F6E"/>
<path transform="translate(1048,417)" d="m0 0h6l4 5 3 9 5 4 2 8 2 3-1 4-3 5-4 4v5 3l-15 14-11 9-11 10-14 11-11 9-15 11-11 8-18 13-14 10-37 24-3-1 3-5 5-4 2-3 12-5 2-3v-5h2v-2l7-2 1-7 4-3 4-2h5l6-8v-7l2-1 5-1 3-3v-3l3-3 5-12h4l1-7h-2l-1 3v-3l-5 4-8-1-5-2-7-2-1 6-3 5h-7l-5 2h-9l-9 2-8 7-5 1h-4l-11 3-2 2-6 1v-3l5-5 30-20 16-12 21-16 17-12 12-9 6-5 2 1-3 3 12-2 8-5 1-2h2v-3l4-1h6l2-4 8-1v-2l6-4 3-6 1-1z" fill="#464781"/>
<path transform="translate(461,517)" d="m0 0 9 1-1 6-14 27-14 26-16 31-12 22-10 19-8 14-4-1-7-9-4-5-2-8-6-12-4-14-7-2-3-3h-7l-8-4-2-2-11-2-1-3-8-1-8 4-8 3-8 5-5 1 5-5 11-7 11-6 15-8 16-8 17-8 5-3 10-2v-2l9-5 5-3 16-8 7-4 2-2 10-6 7-3 6-4 5-3z" fill="#46588D"/>
<path transform="translate(1310,563)" d="m0 0 3 1 6 14 11 31 7 18 1 6-4 7-9 10-30 30-8 7-9 9-8 7-7 6h-2v-4h-2l2-5h5l1-6v-7l4-8 2-5-4-1v-2l-4-2-5-2-6 2h-5l-1-5-7-1-1 3-5-1-2-3-4-1-2 4-8 4-5 3h-2v2l-6 4-5 3-8 1 2-4 5-6 11-9 5-5h2v-2l8-7 16-15 11-9 23-23 9-11 11-12 8-10z" fill="#442F6E"/>
<path transform="translate(1229,661)" d="m0 0 5 1 2 3 4 1 1-4 8 1v6l13-3 7 5v2l4 1-3 9-2 4v9l-2 4-5 1-2 4h2l1 5-8 8-10 8-13 11-13 10-7 5h-3v-2h-2l-1-3 1-2h-2l1-4 2-5h2l2-5 1-2h2v-2h2v-2l-2-1v-6h-6l-3-3-1-6-5-2v-2l-5 1-7 4-5-2-2-1-7 3-1 1-11 2-1 4-5 2-7 3h-7l-1 5-4 1-2-1v-3l19-14 15-12 14-11 10-8 3-3 2 1-4 5 11-3 6-5h2v-2l7-4 8-4z" fill="#473C7A"/>
<path transform="translate(997,1219)" d="m0 0h12l4 2 1 5-5 19-6 15-3 7-2 4h-2l-2 6-2 2-2-7v-2h-5l-3-5-2-7-1-4-8-1-1-1-16-1-6 2-8-1-18 2-20 3-13 3-1 1-25 3h-11l-5 1-2-1 2-5 15-10 17-11 4-2v2l6 1 13-3 17-1 8-3 11-2 8-2h7l11-4 11-2 15-1z" fill="#456D9C"/>
<path transform="translate(321,596)" d="m0 0 9 1v3l11 2 4 4 4 1 7 1 4 2 2 2 7 2 5 17 6 11 1 7 7 7 4 6 2 1-2 6-8 13-1 2-5-2-4-7-2-3-2-7-4-5-2-5-5-3-2-4-7-4h-6l-5-4 2-4-4 1h-17l-10-4-9-3-5-3-5-2-9 2h-4v3h-5l-10 5-5 4-6 3-7 5-3 3h-2l1-7 7-20 5-1 4 2h8l4-3h3v-2l22-10 10-5 5-3 8-3z" fill="#456D9C"/>
<path transform="translate(1048,417)" d="m0 0h6l4 5 3 9 5 4 2 8 2 3-1 4-3 5-4 4v5 3l-15 14-11 9-11 10h-3l-1-5-4-2v-6l4-4h2l2-5 3-12v-3l-11 4-6-2-10-4-5-1-3 4h-2l-1 2-4 1v2l-9-1-9-3-1 9-5 3-2 3-4-1-2-4 1-6 18-13 9-7 5-4 2 1-3 3 12-2 8-5 1-2h2v-3l4-1h6l2-4 8-1v-2l6-4 3-6 1-1z" fill="#473C7A"/>
<path transform="translate(628,696)" d="m0 0 14 2 1 1h9l6 5v-4l5 1-1 3h-2l1 4 2 4v3h-2l2 6 2 2-1 5-3 4-4 1-4 7-4 4-2 4-4 1-1 4-5 5-5 1-2 5-6 3h-3v2l-14 7-6 5-3-1 4-6-9 3-9 4h-4l3-9 9-22 6-7 9-17 4-10 5-8 5-5 3-5z" fill="#8260C2"/>
<path transform="translate(868,925)" d="m0 0 4 2 2 4 5 1 2 3-1 9-6 9-2 5-1 7-6 6h-2l-2 5-4 4-3 6-4 1-2 5-4 8-10 4-8 4-7 2-2 2-8 2 3-9 1-4-11 6h-2l2-7 3-5 3-3 8-21 4-5 3-8 3-5 3-3 6-10 10-6 4-2 6 1 6-3z" fill="#8260C2"/>
<path transform="translate(853,896)" d="m0 0h3l1 8-2 4v13l-5 10-6 5-7 4h-2l-2 4-5 9-7-1-1 3-9 4-5-2-2-1v-3h-3v-2l-5-1-14 4-8 5-8 4-7 3-7 2-6 4-10 2-13 4-9 4h-5l2-4 22-13 20-12 25-14 23-13 26-15 21-12z" fill="#456D9C"/>
<path transform="translate(1207,391)" d="m0 0 6 2 7 7 13 18 6 9 6 8 6 10-2 5-10 9-10 8h-4l-2-15-2-11-8 1-1-1v-8l1-4h-4l-2 5-3 1-5-3-1-4-5 1-1 2h-6l-9 7-5 2v2l-12 6-5 4-4 2-3 2-4-2 12-13 7-8 35-35z" fill="#3C2884"/>
<path transform="translate(960,221)" d="m0 0 9 1 40 14 3 2-2 4-4 6-8 7-10 10-7 8-2 3h-2l-2 4-18 18-7 8-4 2 2-10 5-3 2-3 2-10 3-6 1-10 4-2v-7l-3-5-1-7-4-3 1-6 1-5-2-3 1-4z" fill="#3C2884"/>
<path transform="translate(461,517)" d="m0 0 9 1-1 6-14 27-14 26-2 4h-3l-3-9-3-7h-13l-4-1-3 2h-9l-5 1-7-2h-12l3-2h2v-2l9-5 5-3 16-8 7-4 2-2 10-6 7-3 6-4 5-3z" fill="#464781"/>
<path transform="translate(628,675)" d="m0 0h3l1 17-1 2h-2l-1 3-4 1-2 5-4 5-4 4-2 3-4 1-5 2-8-1-3-4-1-2-8 5-13 4-4 1-10 4-5 4-4 1-5 3-6 2-8 5h-3v2l-9 4-5 1-1 2h-2l-1 3-6 1-3-1 5-5 24-14 28-17 21-12 18-10 27-16z" fill="#456D9C"/>
<path transform="translate(970,1238)" d="m0 0 14 1-1 14-8 1-5-2-16-1-6 2-8-1-18 2-20 3-13 3-1 1-25 3h-11l-5 1-2-1 2-5 15-10 5 2 16-1 10-1 18-2 15-3 17-3 24-2z" fill="#44749F"/>
<path transform="translate(1057,1129)" d="m0 0h3l-2 6h-2v2l-3 3-1 3h-2l-1 6-4 10 3 1-9 24-6 12h-2l-5-6-3-2 3-6-1-3 3-7-10-2v-8l-8 1-3-3v-2l29-17z" fill="#464781"/>
<path transform="translate(1018,1253)" d="m0 0 2 1v2l3-1v-2l3 1-3 7-4 3 2 4-4 3v2h-3l-1 6h-5l-7 9-8 11-2 2h-3l-1 4-12 30-7 17-3 9-4 3-6 3h-2l1-5 5-8 6-14 8-25 11-21 10-19 2-4h2l1-4 6-8 3-1h4l1-2h2l1-2 2 1z" fill="#8260C2"/>
<path transform="translate(812,931)" d="m0 0 2 1-5 7h-2l-2 4-6 4v2l-10 3-8 3-6 3-6 4-10 4-7 2-6 4-10 2-13 4-9 4h-5l2-4 22-13 30-18 2 1v1l7-2 7-4 20-8 3-2 9-1z" fill="#4475A0"/>
<path transform="translate(771,190)" d="m0 0h39l22 1 7 2v2l-11 2-45 3h-27l-10-1h-25l-5-2 2-2 23-3z" fill="#3F2986"/>
<path transform="translate(586,698)" d="m0 0 2 1-1 2 14-1-1 2h-3l-1 5-10 7-3 2-13 4-4 1-10 4-5 4-4 1-5 3-6 2-8 5h-3v2l-9 4-5 1-1 2h-2l-1 3-6 1-3-1 5-5 24-14 28-17 21-12z" fill="#4678A1"/>
<path transform="translate(1343,694)" d="m0 0h3l3 7 3 23v13l-3-1-4-8-5 1h-7l-2 4-8-1-4-1-6 3 2-4 13-19 10-13z" fill="#463071"/>
<path transform="translate(853,896)" d="m0 0h3l1 8-2 4v13l-5 10-6 5-7 4h-2l2-11 1-2h2l1-11-6 1-3-1-7 1h-5v-2l21-12z" fill="#47588E"/>
<path transform="translate(896,586)" d="m0 0 5 1-5 5-19 12-24 15-15 9-3-1 12-12 10-6h2l1-3 16-8 6-1v-2h2l1-2 5-2h3l2-4z" fill="#494985"/>
<path transform="translate(856,195)" d="m0 0h14l12 2 5 3-1 5-5 6-4 4h-2l-2 4-10 9v-3l7-8 5-12-8-1-10-7z" fill="#463273"/>
<path transform="translate(1327,713)" d="m0 0 7 3 5 1v2h2v4h2l-1 6h-9l-2 4-8-1-4-1-6 3 2-4z" fill="#3D2884"/>
<path transform="translate(991,231)" d="m0 0 7 1 13 5v4l-5 7-8 7-3 1-1-5-1-9z" fill="#453070"/>
<path transform="translate(628,675)" d="m0 0h3l1 17-1 2h-2l-1 3-4 1-2 5-3 3 1-11v-9l-6-1v-3z" fill="#47588E"/>
<path transform="translate(1177,1021)" d="m0 0 3 1v2l8-3 3 1-1 8-3 5h-2v3l-5 3-3 5h-6l2-4h2l-2-9 4-5-1-5z" fill="#815FC1"/>
<path transform="translate(621,733)" d="m0 0 4 2 11-1 1 4-4 5-1 3-10 4-4-1-2-5-2-4 5-5h2z" fill="#6843A9"/>
<path transform="translate(994,816)" d="m0 0 2 4-1 9-2 3h-2v2h-2l-1 3-5 5-8 9-3 5h-2l1-4 6-9 8-15 4-10z" fill="#464781"/>
<path transform="translate(948,895)" d="m0 0 4 4 1 3 2-2 2 2-4 7v6l-10 5-1-3 3-13z" fill="#474782"/>
<path transform="translate(460,528)" d="m0 0h6l-7 15-2-3h-7l-2 1 1-7z" fill="#6843A9"/>
<path transform="translate(856,195)" d="m0 0h14l7 1-2 1 1 7-1 1-8-1-10-7z" fill="#3E2986"/>
<path transform="translate(291,608)" d="m0 0 2 1-8 5-11 5h-2v2l-7 4h-8l-2-2 16-7 16-6z" fill="#8260C2"/>
<path transform="translate(946,476)" d="m0 0h3l1 6-1 2h-6l-2 1-1 3-8 3-4 2 1-4 11-9z" fill="#493E7D"/>
<path transform="translate(1169,1046)" d="m0 0h2v2l-4 1v5l-7 2-2 6-5 1-3-1 1-3 3-1 1-5 4 1v1l4-3 2-4z" fill="#815FC1"/>
<path transform="translate(1207,391)" d="m0 0 6 2 1 2-7 4-11 2 5-5z" fill="#493277"/>
<path transform="translate(1147,1061)" d="m0 0 4 2-2 4-4 1v2l-5 3-2-2 2-4 3-2 1-2h3z" fill="#8260C2"/>
<path transform="translate(915,499)" d="m0 0 3 1-2 4-10 5-2-1 5-5z" fill="#4A3F80"/>
<path transform="translate(735,674)" d="m0 0h2l1 9v2l-5 2v-10z" fill="#4C4C86"/>
<path transform="translate(1142,718)" d="m0 0 2 1-2 2-2 6-4 1-2-1v-3z" fill="#4A3E80"/>
<path transform="translate(1203,753)" d="m0 0 3 2-11 9-1-4z" fill="#4A3F80"/>
<path transform="translate(1057,1129)" d="m0 0h3l-2 6h-2v2h-2v-2h-2v-3z" fill="#4A3E7F"/>
<path transform="translate(1207,697)" d="m0 0 3 1 1 6-4 1-2-4z" fill="#464781"/>
<path transform="translate(1343,694)" d="m0 0h3l2 6-7-2-5 4 2-4z" fill="#56408D"/>
<path transform="translate(1169,1046)" d="m0 0h2v2l-4 1v5l-5 2-3-1 4-3 2-4z" fill="#8260C2"/>
<path transform="translate(250,622)" d="m0 0 5 1 3 3h-10v-3z" fill="#4E5E92"/>
</svg>
